<svg version="1.1" id="Layer_1" xmlns="http://www.w3.org/2000/svg" x="0" y="0" viewBox="0 0 320.3 80.6" xml:space="preserve"><style>.st1{fill:#fff}</style><path d="M21.3 72.7l36.9-29.1-16.6 15.9 6.7 12.4-.9 5.2h25.5l-13.4-24C95.7 23.4 99.7 2.4 99.7 2.4l-47 36.3-5.4-9.9 2.5-4-28.1.7 15 25.3L2.3 77.1H23l-1.7-4.4z" fill="#d81698"/><path class="st1" d="M69.6 77.1L76 25h8c1.6 0 2.9.4 3.8 1.1.9.8 1.4 2 1.4 3.7v3.1c2.2-2.9 4.5-5.1 7-6.6 2.4-1.4 5-2.1 7.7-2.1 2.9 0 5.4 1 7.3 2.9s3.2 4.7 3.7 8.3c2.3-3.9 4.8-6.7 7.6-8.5 2.7-1.8 5.8-2.7 9.3-2.7 2.2 0 4.1.4 5.9 1.3 1.7.9 3.2 2.1 4.3 3.8 1.1 1.7 1.9 3.7 2.4 6.2s.5 5.3.1 8.5l-3.9 33.1h-15.4L129 44c.2-1.4.2-2.6.2-3.6-.1-1-.2-1.7-.5-2.3s-.6-1-1.1-1.2c-.5-.3-1-.4-1.7-.4-1 0-2 .3-3 .8-1 .6-1.9 1.4-2.7 2.4-.9 1.1-1.6 2.3-2.3 3.8-.7 1.5-1.3 3.2-1.9 5L112.6 77H97.4l3.9-33.1c.2-1.4.2-2.6.2-3.6-.1-1-.2-1.7-.5-2.3s-.6-1-1.1-1.2c-.5-.3-1-.4-1.7-.4-1 0-2 .3-3 .9-1 .6-1.9 1.4-2.7 2.5-.9 1.1-1.6 2.4-2.3 3.9-.7 1.5-1.3 3.2-1.9 5.1l-3.4 28.3H69.6zM192.6 67c-1.8 1.8-3.6 3.4-5.4 4.7-1.8 1.3-3.6 2.4-5.4 3.3-1.9.9-3.8 1.5-5.9 1.9-2.1.4-4.4.6-6.9.6-3.1 0-5.9-.5-8.5-1.6s-4.8-2.5-6.7-4.5c-1.9-1.9-3.3-4.2-4.3-7-1-2.7-1.5-5.7-1.5-9 0-2.8.3-5.5.9-8.1.6-2.6 1.5-5.1 2.7-7.5 1.2-2.3 2.6-4.5 4.2-6.4 1.7-2 3.6-3.6 5.7-5s4.4-2.5 6.9-3.3 5.1-1.2 8-1.2c2.8 0 5.2.4 7.4 1.2 2.2.8 4 1.9 5.5 3.1 1.5 1.3 2.6 2.7 3.4 4.3.8 1.6 1.2 3.2 1.2 4.8 0 2.4-.5 4.5-1.4 6.5s-2.6 3.7-4.9 5.3c-2.3 1.5-5.5 2.8-9.4 3.9-3.9 1.1-8.9 1.9-14.8 2.5.1 3.5.8 6.1 2.3 7.8 1.5 1.6 3.7 2.5 6.6 2.5 1.4 0 2.6-.1 3.6-.4 1-.2 1.9-.5 2.6-.9.8-.4 1.4-.8 2-1.2s1.2-.8 1.7-1.2c.6-.4 1.1-.7 1.7-.9.6-.2 1.3-.4 2.1-.4.5 0 1 .1 1.5.4.5.3.9.6 1.3 1l3.8 4.8zm-17.2-32.7c-2.6 0-4.8 1-6.8 3.1-1.9 2.1-3.4 4.9-4.3 8.5 3.2-.5 5.8-1 7.8-1.6s3.6-1.2 4.7-1.8c1.1-.7 1.9-1.3 2.2-2.1.4-.7.6-1.5.6-2.4s-.3-1.7-1-2.5-1.7-1.2-3.2-1.2zM200.7 65.8v-.9c0-.3 0-.8.1-1.4s.1-1.4.3-2.5c.1-1 .3-2.4.5-4l2.7-21.3H200c-.7 0-1.3-.3-1.8-.8s-.6-1.3-.5-2.3l.7-6.1 7.9-1.6 4.4-12.7c.6-1.6 1.7-2.4 3.4-2.4h8.4L220.6 25h11.7L231 35.6h-11.7L216.8 56c-.2 1.4-.3 2.5-.4 3.2-.1.8-.2 1.4-.2 1.8-.1.4-.1.7-.1.9v.3c0 1 .2 1.8.7 2.4.5.7 1.2 1 2.1 1 .5 0 1-.1 1.3-.2.4-.1.7-.3.9-.4.3-.2.5-.3.8-.4.2-.1.5-.2.8-.2.5 0 .8.1 1 .3.2.2.4.6.7 1l3.4 7.4c-2.1 1.5-4.3 2.6-6.7 3.4s-4.8 1.1-7.2 1.1c-2 0-3.8-.3-5.4-.8-1.6-.6-3-1.4-4.1-2.4-1.2-1.1-2.1-2.3-2.7-3.8-.5-1.2-.9-2.9-1-4.8z"/><path class="st1" d="M274 67.4c-1.8 1.8-3.6 3.4-5.4 4.7-1.8 1.3-3.6 2.4-5.4 3.3-1.9.9-3.8 1.5-5.9 1.9s-4.4.6-6.9.6c-3.1 0-5.9-.5-8.5-1.6s-4.8-2.5-6.7-4.5c-1.9-1.9-3.3-4.2-4.3-7-1-2.7-1.5-5.7-1.5-9 0-2.8.3-5.5.9-8.1.6-2.6 1.5-5.1 2.7-7.5 1.2-2.3 2.6-4.5 4.2-6.4 1.7-2 3.6-3.6 5.7-5s4.4-2.5 6.9-3.3 5.1-1.2 8-1.2c2.8 0 5.3.4 7.4 1.2 2.2.8 4 1.9 5.5 3.1 1.5 1.3 2.6 2.7 3.4 4.3.8 1.6 1.2 3.2 1.2 4.8 0 2.4-.5 4.5-1.4 6.5s-2.6 3.7-4.9 5.3c-2.3 1.5-5.5 2.8-9.4 3.9-3.9 1.1-8.9 1.9-14.8 2.5.1 3.5.8 6.1 2.3 7.8 1.5 1.6 3.7 2.5 6.6 2.5 1.4 0 2.6-.1 3.6-.4 1-.2 1.9-.5 2.6-.9.8-.4 1.4-.8 2-1.2.6-.4 1.2-.8 1.7-1.2.6-.4 1.1-.7 1.7-.9s1.3-.4 2.1-.4c.5 0 1 .1 1.5.4s.9.6 1.3 1l3.8 4.8zm-17.2-32.6c-2.6 0-4.8 1-6.8 3.1-1.9 2.1-3.4 4.9-4.3 8.5 3.2-.5 5.8-1 7.8-1.6s3.6-1.2 4.7-1.8c1.1-.7 1.9-1.3 2.2-2.1.4-.7.6-1.5.6-2.4s-.3-1.7-1-2.5c-.6-.8-1.7-1.2-3.2-1.2zM297.2 35.7c1.3-2.2 2.6-4.2 4.1-5.8 1.4-1.6 2.9-2.9 4.4-3.7 1.5-.9 3.1-1.4 4.7-1.5s3.2.2 4.8.9L312.4 40c-1.9-.8-3.7-1.2-5.4-1.1-1.7.1-3.2.6-4.6 1.7-1.4 1.1-2.6 2.7-3.8 4.8-1.1 2.1-2.1 4.9-2.9 8.2L293 77.1h-15.3L284 25h8c1.6 0 2.9.4 3.8 1.1.9.8 1.4 2 1.4 3.7v5.9z"/></svg>