<svg id="Layer_1" xmlns="http://www.w3.org/2000/svg" viewBox="0 0 512 512"><style>.st0{fill:#d81698}</style><path class="st0" d="M13.4 212.1c-3.1 15.6-4.8 31.8-4.8 48.3 0 40.3 9.9 78.3 27 112l50-38-72.2-122.3zM156.2 187.9l35.7 65.6 229.3-177C377.3 37.2 319.5 13 256 13 153.1 13 64.9 75.9 27.6 165.3l145.3-3.7-16.7 26.3zM63.5 415.6c25.5 31.6 58.6 56.9 96.6 72.9l2.7-15-44.3-82.1 109.8-105.7L63.5 415.6zM455.5 114.5C418 173.4 352 254.5 236.8 349.1L320.6 499c105.3-28.4 182.8-124.3 182.8-238.6 0-54.6-17.9-104.9-47.9-145.9z"/></svg>