<?xml version="1.0" encoding="utf-8"?>
<!-- Generator: Adobe Illustrator 22.1.0, SVG Export Plug-In . SVG Version: 6.00 Build 0)  -->
<svg version="1.1" id="Layer_1" xmlns="http://www.w3.org/2000/svg" xmlns:xlink="http://www.w3.org/1999/xlink" x="0px" y="0px"
	 viewBox="0 0 320.3 80.6" style="enable-background:new 0 0 320.3 80.6;" xml:space="preserve">
<style type="text/css">
	.st0{fill:#FFFFFF;}
</style>
<path class="st0" d="M21.3,72.7l36.9-29.1L41.6,59.5l6.7,12.4l-0.9,5.2h25.5l-13.4-24C95.7,23.4,99.7,2.4,99.7,2.4l-47,36.3
	l-5.4-9.9l2.5-4l-28.1,0.7l15,25.3L2.3,77.1H23L21.3,72.7z"/>
<path class="st0" d="M69.6,77.1L76,25h8c1.6,0,2.9,0.4,3.8,1.1c0.9,0.8,1.4,2,1.4,3.7v3.1c2.2-2.9,4.5-5.1,7-6.6
	c2.4-1.4,5-2.1,7.7-2.1c2.9,0,5.4,1,7.3,2.9s3.2,4.7,3.7,8.3c2.3-3.9,4.8-6.7,7.6-8.5c2.7-1.8,5.8-2.7,9.3-2.7
	c2.2,0,4.1,0.4,5.9,1.3c1.7,0.9,3.2,2.1,4.3,3.8c1.1,1.7,1.9,3.7,2.4,6.2s0.5,5.3,0.1,8.5l-3.9,33.1h-15.4L129,44
	c0.2-1.4,0.2-2.6,0.2-3.6c-0.1-1-0.2-1.7-0.5-2.3s-0.6-1-1.1-1.2c-0.5-0.3-1-0.4-1.7-0.4c-1,0-2,0.3-3,0.8c-1,0.6-1.9,1.4-2.7,2.4
	c-0.9,1.1-1.6,2.3-2.3,3.8c-0.7,1.5-1.3,3.2-1.9,5L112.6,77H97.4l3.9-33.1c0.2-1.4,0.2-2.6,0.2-3.6c-0.1-1-0.2-1.7-0.5-2.3
	s-0.6-1-1.1-1.2c-0.5-0.3-1-0.4-1.7-0.4c-1,0-2,0.3-3,0.9c-1,0.6-1.9,1.4-2.7,2.5c-0.9,1.1-1.6,2.4-2.3,3.9
	c-0.7,1.5-1.3,3.2-1.9,5.1l-3.4,28.3C84.9,77.1,69.6,77.1,69.6,77.1z"/>
<path class="st0" d="M192.6,67c-1.8,1.8-3.6,3.4-5.4,4.7c-1.8,1.3-3.6,2.4-5.4,3.3c-1.9,0.9-3.8,1.5-5.9,1.9
	c-2.1,0.4-4.4,0.6-6.9,0.6c-3.1,0-5.9-0.5-8.5-1.6s-4.8-2.5-6.7-4.5c-1.9-1.9-3.3-4.2-4.3-7c-1-2.7-1.5-5.7-1.5-9
	c0-2.8,0.3-5.5,0.9-8.1c0.6-2.6,1.5-5.1,2.7-7.5c1.2-2.3,2.6-4.5,4.2-6.4c1.7-2,3.6-3.6,5.7-5s4.4-2.5,6.9-3.3s5.1-1.2,8-1.2
	c2.8,0,5.2,0.4,7.4,1.2c2.2,0.8,4,1.9,5.5,3.1c1.5,1.3,2.6,2.7,3.4,4.3c0.8,1.6,1.2,3.2,1.2,4.8c0,2.4-0.5,4.5-1.4,6.5
	s-2.6,3.7-4.9,5.3c-2.3,1.5-5.5,2.8-9.4,3.9c-3.9,1.1-8.9,1.9-14.8,2.5c0.1,3.5,0.8,6.1,2.3,7.8c1.5,1.6,3.7,2.5,6.6,2.5
	c1.4,0,2.6-0.1,3.6-0.4c1-0.2,1.9-0.5,2.6-0.9c0.8-0.4,1.4-0.8,2-1.2s1.2-0.8,1.7-1.2c0.6-0.4,1.1-0.7,1.7-0.9
	c0.6-0.2,1.3-0.4,2.1-0.4c0.5,0,1,0.1,1.5,0.4c0.5,0.3,0.9,0.6,1.3,1L192.6,67z M175.4,34.3c-2.6,0-4.8,1-6.8,3.1
	c-1.9,2.1-3.4,4.9-4.3,8.5c3.2-0.5,5.8-1,7.8-1.6s3.6-1.2,4.7-1.8c1.1-0.7,1.9-1.3,2.2-2.1c0.4-0.7,0.6-1.5,0.6-2.4s-0.3-1.7-1-2.5
	S176.9,34.3,175.4,34.3z"/>
<path class="st0" d="M200.7,65.8c0-0.2,0-0.5,0-0.9c0-0.3,0-0.8,0.1-1.4s0.1-1.4,0.3-2.5c0.1-1,0.3-2.4,0.5-4l2.7-21.3H200
	c-0.7,0-1.3-0.3-1.8-0.8s-0.6-1.3-0.5-2.3l0.7-6.1l7.9-1.6l4.4-12.7c0.6-1.6,1.7-2.4,3.4-2.4h8.4L220.6,25h11.7L231,35.6h-11.7
	L216.8,56c-0.2,1.4-0.3,2.5-0.4,3.2c-0.1,0.8-0.2,1.4-0.2,1.8c-0.1,0.4-0.1,0.7-0.1,0.9s0,0.2,0,0.3c0,1,0.2,1.8,0.7,2.4
	c0.5,0.7,1.2,1,2.1,1c0.5,0,1-0.1,1.3-0.2c0.4-0.1,0.7-0.3,0.9-0.4c0.3-0.2,0.5-0.3,0.8-0.4c0.2-0.1,0.5-0.2,0.8-0.2
	c0.5,0,0.8,0.1,1,0.3c0.2,0.2,0.4,0.6,0.7,1l3.4,7.4c-2.1,1.5-4.3,2.6-6.7,3.4s-4.8,1.1-7.2,1.1c-2,0-3.8-0.3-5.4-0.8
	c-1.6-0.6-3-1.4-4.1-2.4c-1.2-1.1-2.1-2.3-2.7-3.8C201.2,69.4,200.8,67.7,200.7,65.8z"/>
<path class="st0" d="M274,67.4c-1.8,1.8-3.6,3.4-5.4,4.7c-1.8,1.3-3.6,2.4-5.4,3.3c-1.9,0.9-3.8,1.5-5.9,1.9s-4.4,0.6-6.9,0.6
	c-3.1,0-5.9-0.5-8.5-1.6s-4.8-2.5-6.7-4.5c-1.9-1.9-3.3-4.2-4.3-7c-1-2.7-1.5-5.7-1.5-9c0-2.8,0.3-5.5,0.9-8.1
	c0.6-2.6,1.5-5.1,2.7-7.5c1.2-2.3,2.6-4.5,4.2-6.4c1.7-2,3.6-3.6,5.7-5s4.4-2.5,6.9-3.3s5.1-1.2,8-1.2c2.8,0,5.3,0.4,7.4,1.2
	c2.2,0.8,4,1.9,5.5,3.1c1.5,1.3,2.6,2.7,3.4,4.3c0.8,1.6,1.2,3.2,1.2,4.8c0,2.4-0.5,4.5-1.4,6.5s-2.6,3.7-4.9,5.3
	c-2.3,1.5-5.5,2.8-9.4,3.9c-3.9,1.1-8.9,1.9-14.8,2.5c0.1,3.5,0.8,6.1,2.3,7.8c1.5,1.6,3.7,2.5,6.6,2.5c1.4,0,2.6-0.1,3.6-0.4
	c1-0.2,1.9-0.5,2.6-0.9c0.8-0.4,1.4-0.8,2-1.2c0.6-0.4,1.2-0.8,1.7-1.2c0.6-0.4,1.1-0.7,1.7-0.9s1.3-0.4,2.1-0.4
	c0.5,0,1,0.1,1.5,0.4s0.9,0.6,1.3,1L274,67.4z M256.8,34.8c-2.6,0-4.8,1-6.8,3.1c-1.9,2.1-3.4,4.9-4.3,8.5c3.2-0.5,5.8-1,7.8-1.6
	s3.6-1.2,4.7-1.8c1.1-0.7,1.9-1.3,2.2-2.1c0.4-0.7,0.6-1.5,0.6-2.4s-0.3-1.7-1-2.5C259.4,35.2,258.3,34.8,256.8,34.8z"/>
<path class="st0" d="M297.2,35.7c1.3-2.2,2.6-4.2,4.1-5.8c1.4-1.6,2.9-2.9,4.4-3.7c1.5-0.9,3.1-1.4,4.7-1.5s3.2,0.2,4.8,0.9
	L312.4,40c-1.9-0.8-3.7-1.2-5.4-1.1c-1.7,0.1-3.2,0.6-4.6,1.7c-1.4,1.1-2.6,2.7-3.8,4.8c-1.1,2.1-2.1,4.9-2.9,8.2L293,77.1h-15.3
	L284,25h8c1.6,0,2.9,0.4,3.8,1.1c0.9,0.8,1.4,2,1.4,3.7L297.2,35.7L297.2,35.7z"/>
</svg>
