<?xml version="1.0" encoding="utf-8"?>
<!-- Generator: Adobe Illustrator 22.1.0, SVG Export Plug-In . SVG Version: 6.00 Build 0)  -->
<svg version="1.1" id="Layer_1" xmlns="http://www.w3.org/2000/svg" xmlns:xlink="http://www.w3.org/1999/xlink" x="0px" y="0px"
	 viewBox="0 0 512 512" style="enable-background:new 0 0 512 512;" xml:space="preserve">
<style type="text/css">
	.st0{fill:#FFFFFF;}
</style>
<g>
	<path class="st0" d="M13.4,212.1c-3.1,15.6-4.8,31.8-4.8,48.3v0c0,40.3,9.9,78.3,27,112l50-38L13.4,212.1z"/>
	<path class="st0" d="M156.2,187.9l35.7,65.6l229.3-177C377.3,37.2,319.5,13,256,13h0C153.1,13,64.9,75.9,27.6,165.3l145.3-3.7
		L156.2,187.9z"/>
	<path class="st0" d="M63.5,415.6c25.5,31.6,58.6,56.9,96.6,72.9l2.7-15l-44.3-82.1l109.8-105.7L63.5,415.6z"/>
	<path class="st0" d="M455.5,114.5c-37.5,58.9-103.5,140-218.7,234.6L320.6,499c105.3-28.4,182.8-124.3,182.8-238.6v0
		C503.4,205.8,485.5,155.5,455.5,114.5z"/>
</g>
</svg>
